<?xml version="1.0" encoding="UTF-8"?>
<svg width="400" height="400" viewBox="0 0 400 400" xmlns="http://www.w3.org/2000/svg">
  <!-- Engranaje superior (mitad visible) -->
  <path d="M130,120 C130,120 140,90 170,75 C200,60 230,60 260,75 C290,90 300,120 300,120 L130,120 Z" fill="white"/>
  
  <!-- Panel de control/configuración -->
  <rect x="110" y="120" width="210" height="180" rx="15" ry="15" fill="white"/>
  
  <!-- Barra superior con botones -->
  <rect x="125" y="135" width="120" height="20" rx="5" ry="5" fill="#373aa9"/>
  <circle cx="295" cy="145" r="8" fill="#373aa9"/>
  <circle cx="270" cy="145" r="8" fill="#373aa9"/>
  
  <!-- Deslizador 1 -->
  <rect x="125" y="175" width="180" height="10" rx="5" ry="5" fill="#373aa9"/>
  <rect x="175" y="165" width="30" height="30" rx="10" ry="10" fill="white" stroke="#373aa9" stroke-width="3"/>
  
  <!-- Deslizador 2 -->
  <rect x="125" y="225" width="180" height="10" rx="5" ry="5" fill="#373aa9"/>
  <rect x="135" y="215" width="30" height="30" rx="10" ry="10" fill="white" stroke="#373aa9" stroke-width="3"/>
  
  <!-- Deslizador 3 -->
  <rect x="125" y="275" width="180" height="10" rx="5" ry="5" fill="#373aa9"/>
  <rect x="255" y="265" width="30" height="30" rx="10" ry="10" fill="white" stroke="#373aa9" stroke-width="3"/>
</svg>
