<?xml version="1.0" encoding="UTF-8"?>
<svg width="400" height="400" viewBox="0 0 400 400" xmlns="http://www.w3.org/2000/svg">
  <!-- Engranaje superior (completo y destacado) -->
  <path d="M200,40 L215,55 L240,50 L245,75 L270,80 L265,105 L285,120 L260,135 L255,160 L230,155 L215,175 L200,155 L185,175 L170,155 L145,160 L140,135 L115,120 L135,105 L130,80 L155,75 L160,50 L185,55 L200,40" fill="white" stroke="#373aa9" stroke-width="2"/>
  <circle cx="200" cy="110" r="30" fill="#373aa9"/>
  
  <!-- Panel de control/configuración -->
  <rect x="110" y="130" width="180" height="170" rx="15" ry="15" fill="white"/>
  
  <!-- Barra superior con botones -->
  <rect x="125" y="145" width="100" height="20" rx="5" ry="5" fill="#373aa9"/>
  <circle cx="255" cy="155" r="8" fill="#373aa9"/>
  <circle cx="275" cy="155" r="8" fill="#373aa9"/>
  
  <!-- Deslizador 1 -->
  <rect x="125" y="185" width="150" height="10" rx="5" ry="5" fill="#373aa9"/>
  <rect x="175" y="175" width="30" height="30" rx="10" ry="10" fill="white" stroke="#373aa9" stroke-width="3"/>
  
  <!-- Deslizador 2 -->
  <rect x="125" y="225" width="150" height="10" rx="5" ry="5" fill="#373aa9"/>
  <rect x="135" y="215" width="30" height="30" rx="10" ry="10" fill="white" stroke="#373aa9" stroke-width="3"/>
  
  <!-- Deslizador 3 -->
  <rect x="125" y="265" width="150" height="10" rx="5" ry="5" fill="#373aa9"/>
  <rect x="225" y="255" width="30" height="30" rx="10" ry="10" fill="white" stroke="#373aa9" stroke-width="3"/>
</svg>
