<?xml version="1.0" encoding="UTF-8"?>
<svg width="400" height="400" viewBox="0 0 400 400" xmlns="http://www.w3.org/2000/svg">
  <!-- Círculo azul de fondo -->
  <circle cx="200" cy="200" r="180" fill="#1a4491"/>
  
  <!-- Documento/página -->
  <g transform="translate(120, 90) scale(0.95)">
    <!-- Página con esquina doblada -->
    <path d="M30,20 L180,20 L180,230 C180,235 175,240 170,240 L30,240 C25,240 20,235 20,230 L20,30 C20,25 25,20 30,20 Z" fill="#ffffff"/>
    <!-- Esquina doblada -->
    <path d="M180,20 L180,50 L150,20 Z" fill="#ffffff" stroke="#1a4491" stroke-width="2"/>
    
    <!-- Líneas de texto en el documento -->
    <line x1="50" y1="60" x2="155" y2="60" stroke="#1a4491" stroke-width="8" stroke-linecap="round"/>
    <line x1="50" y1="90" x2="115" y2="90" stroke="#1a4491" stroke-width="5" stroke-linecap="round"/>
    <line x1="50" y1="210" x2="155" y2="210" stroke="#1a4491" stroke-width="8" stroke-linecap="round"/>
  </g>
  
  <!-- Engranaje con verificación -->
  <g transform="translate(200, 170) scale(0.65)">
    <!-- Engranaje externo -->
    <path d="M100,20 L110,35 L130,30 L135,50 L155,50 L160,70 L180,80 L170,100 L180,120 L160,130 L155,150 L135,150 L130,170 L110,165 L100,180 L90,165 L70,170 L65,150 L45,150 L40,130 L20,120 L30,100 L20,80 L40,70 L45,50 L65,50 L70,30 L90,35 L100,20" 
          fill="none" stroke="#1a4491" stroke-width="12"/>
    
    <!-- Círculo interior del engranaje -->
    <circle cx="100" cy="100" r="45" fill="#ffffff" stroke="#1a4491" stroke-width="8"/>
    
    <!-- Marca de verificación dentro del engranaje -->
    <path d="M70,100 L90,120 L130,80" stroke="#1a4491" stroke-width="14" fill="none" stroke-linecap="round" stroke-linejoin="round"/>
  </g>
  
  <!-- Lupa -->
  <g transform="translate(90, 150) scale(0.7)">
    <!-- Círculo de la lupa -->
    <circle cx="70" cy="70" r="50" fill="none" stroke="#ffffff" stroke-width="16"/>
    <!-- Mango de la lupa -->
    <path d="M20,120 L110,30" stroke="#ffffff" stroke-width="18" stroke-linecap="round"/>
  </g>
</svg>
