<?xml version="1.0" encoding="UTF-8" standalone="no"?>
<svg width="400" height="150" viewBox="0 0 400 150" xmlns="http://www.w3.org/2000/svg">
  <!-- Trabajador con casco -->
  <g transform="translate(20, 15) scale(1.1)">
    <!-- Casco -->
    <path d="M45,30 C30,30 30,15 45,10 C60,15 60,30 45,30 Z" fill="#4f66ed"/>
    <path d="M25,30 C25,20 40,5 60,5 C80,5 95,20 95,30 Z" fill="#4f66ed"/>
    
    <!-- Cara -->
    <circle cx="45" cy="45" r="15" fill="#c4d3ff"/>
    
    <!-- Cuerpo -->
    <path d="M25,60 L65,60 L70,110 L20,110 Z" fill="#4f66ed"/>
    
    <!-- Brazo sosteniendo carpeta -->
    <path d="M65,75 L85,80 L85,100 L65,95 Z" fill="#4f66ed"/>
    
    <!-- Carpeta -->
    <rect x="70" y="80" width="35" height="30" fill="#93c5fd" rx="3"/>
    <path d="M75,85 L100,85 M75,95 L100,95 M75,105 L100,105" stroke="#2942c9" stroke-width="2"/>
  </g>
  
  <!-- Engranaje azul -->
  <g transform="translate(125, 15) scale(1.3)">
    <path d="M50,10 L54,22 L67,18 L72,30 L60,37 L65,50 L78,50 L78,63 L65,63 L60,76 L72,83 L67,95 L54,91 L50,103 L37,97 L37,110 L22,110 L22,97 L10,103 L5,91 L18,83 L13,76 L0,63 L0,50 L13,50 L18,37 L5,30 L10,18 L22,22 L27,10 L37,15 L50,10" 
          fill="#4f66ed" stroke="#3654eb" stroke-width="2"/>
    <circle cx="40" cy="56" r="25" fill="#4f66ed" stroke="#3654eb" stroke-width="2"/>
    <!-- Marca de verificación dentro del engranaje -->
    <path d="M28,56 L36,65 L52,45" stroke="white" stroke-width="6" fill="none" stroke-linecap="round" stroke-linejoin="round"/>
  </g>
  
  <!-- Título "CONTROL DE CASOS" - el texto estará en el código Vue -->
</svg>
